HIERARCHY
ROOT Hips
{
	OFFSET 0.000000 0.000000 0.000000
	CHANNELS 6 Xposition Yposition Zposition Zrotation Xrotation Yrotation
	JOINT LHipJoint
	{
		OFFSET 0.000000 0.000000 0.000000
		CHANNELS 3 Zrotation Xrotation Yrotation
		JOINT LeftUpLeg
		{
			OFFSET 0.076937 -0.101296 0.047373
			CHANNELS 3 Zrotation Xrotation Yrotation
			JOINT LeftLeg
			{
				OFFSET 0.138181 -0.379650 0.000000
				CHANNELS 3 Zrotation Xrotation Yrotation
				JOINT LeftFoot
				{
					OFFSET 0.144621 -0.397343 0.000000
					CHANNELS 3 Zrotation Xrotation Yrotation
					JOINT LeftToeBase
					{
						OFFSET 0.008898 -0.024446 0.131094
						CHANNELS 3 Zrotation Xrotation Yrotation
						JOINT End_Site
						{
							OFFSET 0.000000 -0.000000 0.067149
							CHANNELS 3 Zrotation Xrotation Yrotation
							End Site
							{
								OFFSET 0.000000 -0.000000 0.020145
							}
						}
					}
				}
			}
		}
	}
	JOINT RHipJoint
	{
		OFFSET 0.000000 0.000000 0.000000
		CHANNELS 3 Zrotation Xrotation Yrotation
		JOINT RightUpLeg
		{
			OFFSET -0.073689 -0.101296 0.047373
			CHANNELS 3 Zrotation Xrotation Yrotation
			JOINT RightLeg
			{
				OFFSET -0.143511 -0.394292 0.000000
				CHANNELS 3 Zrotation Xrotation Yrotation
				JOINT RightFoot
				{
					OFFSET -0.144963 -0.398282 0.000000
					CHANNELS 3 Zrotation Xrotation Yrotation
					JOINT RightToeBase
					{
						OFFSET -0.009298 -0.025546 0.133386
						CHANNELS 3 Zrotation Xrotation Yrotation
						JOINT End_Site
						{
							OFFSET -0.000000 -0.000000 0.068344
							CHANNELS 3 Zrotation Xrotation Yrotation
							End Site
							{
								OFFSET -0.000000 -0.000000 0.020503
							}
						}
					}
				}
			}
		}
	}
	JOINT LowerBack
	{
		OFFSET 0.000000 0.000000 0.000000
		CHANNELS 3 Zrotation Xrotation Yrotation
		JOINT Spine
		{
			OFFSET 0.001596 0.114897 -0.010915
			CHANNELS 3 Zrotation Xrotation Yrotation
			JOINT Spine1
			{
				OFFSET 0.003202 0.115645 -0.002413
				CHANNELS 3 Zrotation Xrotation Yrotation
				JOINT Neck
				{
					OFFSET 0.000000 0.000000 0.000000
					CHANNELS 3 Zrotation Xrotation Yrotation
					JOINT Neck1
					{
						OFFSET -0.003058 0.098565 0.009709
						CHANNELS 3 Zrotation Xrotation Yrotation
						JOINT Head
						{
							OFFSET 0.005874 0.099418 -0.006997
							CHANNELS 3 Zrotation Xrotation Yrotation
							JOINT End_Site
							{
								OFFSET 0.002100 0.099931 -0.003523
								CHANNELS 3 Zrotation Xrotation Yrotation
								End Site
								{
									OFFSET 0.000630 0.029979 -0.001057
								}
							}
						}
					}
				}
				JOINT LeftShoulder
				{
					OFFSET 0.000000 0.000000 0.000000
					CHANNELS 3 Zrotation Xrotation Yrotation
					JOINT LeftArm
					{
						OFFSET 0.189788 0.067783 -0.017566
						CHANNELS 3 Zrotation Xrotation Yrotation
						JOINT LeftForeArm
						{
							OFFSET 0.281260 -0.000000 -0.000000
							CHANNELS 3 Zrotation Xrotation Yrotation
							JOINT LeftHand
							{
								OFFSET 0.196626 -0.000000 -0.000000
								CHANNELS 3 Zrotation Xrotation Yrotation
								JOINT LeftFingerBase
								{
									OFFSET 0.000000 0.000000 0.000000
									CHANNELS 3 Zrotation Xrotation Yrotation
									JOINT LeftHandIndex1
									{
										OFFSET 0.040372 -0.000000 -0.000000
										CHANNELS 3 Zrotation Xrotation Yrotation
										JOINT End_Site
										{
											OFFSET 0.032549 -0.000000 -0.000000
											CHANNELS 3 Zrotation Xrotation Yrotation
											End Site
											{
												OFFSET 0.009765 -0.000000 -0.000000
											}
										}
									}
								}
								JOINT LThumb
								{
									OFFSET 0.000000 0.000000 0.000000
									CHANNELS 3 Zrotation Xrotation Yrotation
									JOINT End_Site
									{
										OFFSET 0.033046 -0.000000 0.033046
										CHANNELS 3 Zrotation Xrotation Yrotation
										End Site
										{
											OFFSET 0.009914 -0.000000 0.009914
										}
									}
								}
							}
						}
					}
				}
				JOINT RightShoulder
				{
					OFFSET 0.000000 0.000000 0.000000
					CHANNELS 3 Zrotation Xrotation Yrotation
					JOINT RightArm
					{
						OFFSET -0.177042 0.077557 -0.022840
						CHANNELS 3 Zrotation Xrotation Yrotation
						JOINT RightForeArm
						{
							OFFSET -0.295874 -0.000000 -0.000000
							CHANNELS 3 Zrotation Xrotation Yrotation
							JOINT RightHand
							{
								OFFSET -0.194403 -0.000000 -0.000000
								CHANNELS 3 Zrotation Xrotation Yrotation
								JOINT RightFingerBase
								{
									OFFSET 0.000000 0.000000 0.000000
									CHANNELS 3 Zrotation Xrotation Yrotation
									JOINT RightHandIndex1
									{
										OFFSET -0.035138 -0.000000 -0.000000
										CHANNELS 3 Zrotation Xrotation Yrotation
										JOINT End_Site
										{
											OFFSET -0.028329 -0.000000 -0.000000
											CHANNELS 3 Zrotation Xrotation Yrotation
											End Site
											{
												OFFSET -0.008499 -0.000000 -0.000000
											}
										}
									}
								}
								JOINT RThumb
								{
									OFFSET 0.000000 0.000000 0.000000
									CHANNELS 3 Zrotation Xrotation Yrotation
									JOINT End_Site
									{
										OFFSET -0.028762 -0.000000 0.028762
										CHANNELS 3 Zrotation Xrotation Yrotation
										End Site
										{
											OFFSET -0.008628 -0.000000 0.008628
										}
									}
								}
							}
						}
					}
				}
			}
		}
	}
}
MOTION
Frames: 4
Frame Time: 0.03333333
0.697325 0.918034 0.720631 0.000000 0.000000 0.000000 6.348502 20.690353 18.341594 -29.759866 -28.202292 -19.864883 -15.596004 25.511000 13.611588 10.383288 -19.824303 25.151865 -0.188378 -9.854995 -2.184743 0.000000 0.000000 0.000000 7.359582 -14.943962 15.039261 20.838131 11.853216 -6.975837 -11.394129 28.773872 -7.483460 4.510613 -11.479835 18.513016 0.086327 -4.275509 2.312336 0.000000 0.000000 0.000000 1.116149 3.604537 0.020905 -2.335904 -0.237567 -0.046984 0.000000 0.000000 0.000000 -1.705958 -14.895914 -0.526698 7.223411 13.273444 -1.133768 -5.253812 10.180863 0.068669 0.000000 0.000000 0.000000 3.277195 -9.413505 28.643229 -79.043368 -7.048280 8.538610 -7.581968 3.208013 -45.818191 0.000000 0.000000 0.000000 9.870814 -0.135105 -1.564471 -6.471014 -0.194710 3.443302 0.000000 0.000000 0.000000 -20.691761 8.724357 44.644828 0.000000 0.000000 0.000000 -6.427771 14.884270 38.250091 70.439554 13.334080 18.803526 -4.208679 -1.896621 48.501586 0.000000 0.000000 0.000000 -19.590436 0.499559 -2.892983 8.790132 -0.194623 -2.531787 0.000000 0.000000 0.000000 17.870871 7.953968 -42.292251 0.000000 0.000000 0.000000
0.705916 0.914287 0.726417 0.000000 0.000000 0.000000 6.743330 20.468544 18.226437 -29.932145 -27.715285 -19.576292 -15.968619 25.662397 13.801422 10.552209 -20.235544 25.298683 -0.187132 -9.646020 -2.217538 0.000000 0.000000 0.000000 7.574000 -14.929634 15.174046 20.919399 10.663822 -6.283230 -11.466632 30.302019 -7.877468 4.403620 -11.757499 18.063619 0.085311 -4.219992 2.315218 0.000000 0.000000 0.000000 1.176302 3.531580 0.026507 -2.457241 -0.121579 -0.050490 0.000000 0.000000 0.000000 -1.621073 -14.673444 -0.513456 7.087443 12.976147 -1.090247 -5.257933 9.972519 0.063647 0.000000 0.000000 0.000000 3.082536 -9.353892 28.274239 -78.380046 -5.857547 7.181464 -6.771745 2.949332 -47.030030 0.000000 0.000000 0.000000 9.954066 -0.083288 -0.956374 -6.469564 -0.183858 3.252245 0.000000 0.000000 0.000000 -20.424222 8.663744 44.387489 0.000000 0.000000 0.000000 -5.950633 14.877750 37.914524 70.013994 13.184026 18.738517 -4.494415 -2.056203 49.150786 0.000000 0.000000 0.000000 -19.516848 0.434457 -2.525768 8.718135 -0.187621 -2.460965 0.000000 0.000000 0.000000 17.771834 8.023817 -41.678145 0.000000 0.000000 0.000000
0.717356 0.913507 0.729726 0.000000 0.000000 0.000000 7.066392 20.344478 18.180479 -30.205163 -27.266092 -19.348819 -16.339072 25.801099 13.985231 10.724284 -20.632525 25.461329 -0.188157 -9.490545 -2.266368 0.000000 0.000000 0.000000 7.839140 -14.898215 15.331239 20.991075 9.443503 -5.569888 -11.551844 31.677147 -8.226550 4.306383 -11.899783 17.690158 0.083489 -4.147562 2.305369 0.000000 0.000000 0.000000 1.240172 3.467393 0.032209 -2.554952 -0.026350 -0.053144 0.000000 0.000000 0.000000 -1.537819 -14.437367 -0.499984 6.944213 12.686162 -1.048094 -5.260216 9.777045 0.058844 0.000000 0.000000 0.000000 2.921891 -9.293972 27.942611 -77.753782 -4.616287 5.724085 -5.957260 2.663322 -48.145342 0.000000 0.000000 0.000000 10.020805 -0.031187 -0.355724 -6.466953 -0.174219 3.083058 0.000000 0.000000 0.000000 -20.123386 8.574164 44.193891 0.000000 0.000000 0.000000 -5.512650 14.884347 37.645440 69.524705 12.993919 18.636623 -4.825815 -2.238661 49.752184 0.000000 0.000000 0.000000 -19.410057 0.379050 -2.216092 8.639624 -0.180456 -2.388590 0.000000 0.000000 0.000000 17.680798 8.089932 -41.099923 0.000000 0.000000 0.000000
0.728521 0.911590 0.729421 0.000000 0.000000 0.000000 7.320427 20.349729 18.227674 -30.570593 -26.855132 -19.178773 -16.746127 25.927660 14.174501 10.923236 -21.068465 25.662359 -0.188373 -9.352961 -2.302486 0.000000 0.000000 0.000000 8.207476 -14.860956 15.554965 21.045485 8.176952 -4.826306 -11.675287 33.000917 -8.549680 4.226686 -11.946312 17.404123 0.080521 -4.044874 2.279929 0.000000 0.000000 0.000000 1.319522 3.395901 0.039183 -2.658255 0.044846 -0.055641 0.000000 0.000000 0.000000 -1.451799 -14.176124 -0.485662 6.776933 12.380446 -1.003869 -5.277664 9.568135 0.054434 0.000000 0.000000 0.000000 2.825908 -9.241381 27.699397 -77.119368 -3.325341 4.170928 -5.106665 2.341146 -49.235391 0.000000 0.000000 0.000000 10.058485 0.023864 0.271167 -6.459278 -0.164285 2.910800 0.000000 0.000000 0.000000 -19.800646 8.462517 44.056335 0.000000 0.000000 0.000000 -5.102281 14.932766 37.506726 68.957458 12.744051 18.472657 -5.232699 -2.462007 50.370457 0.000000 0.000000 0.000000 -19.248794 0.332639 -1.961415 8.558281 -0.172088 -2.299590 0.000000 0.000000 0.000000 17.609678 8.160799 -40.542940 0.000000 0.000000 0.000000
